# xmcd
#
# Track frame offsets: 
#        150
#        22349
#        36781
#        55243
#        90347
#        110050
#        129763
#        146089
#        193312
#        224161
#        236203
#
# Disc length: 3464 seconds
#
# Revision: 0
# Processed by: cddbd v1.5.2PL0 Copyright (c) Steve Scherf et al.
# Submitted via: ExactAudioCopy v1.0b4
#
DISCID=ab0d860b
DTITLE=Big Chico - My New Blues
DYEAR=2013
DGENRE=Blues
TTITLE0=20 Years
TTITLE1=You're All Need
TTITLE2=Chromatic Style
TTITLE3=One Eyed Woman
TTITLE4=Hey Guy
TTITLE5=I Got The Blues
TTITLE6=Further On Up The Road
TTITLE7=Tin Pan Alley
TTITLE8=Ghetto Woman
TTITLE9=Catfish Blues
TTITLE10=The Creeper Returns
EXTD=
EXTT0=
EXTT1=
EXTT2=
EXTT3=
EXTT4=
EXTT5=
EXTT6=
EXTT7=
EXTT8=
EXTT9=
EXTT10=
PLAYORDER=
